<svg width="257" height="284" viewBox="0 0 257 284" fill="none" xmlns="http://www.w3.org/2000/svg">
<path d="M39.4802 55.0191C39.4802 117.541 16.5911 160.475 16.5911 190.602C16.5911 220.728 28.8309 284 126.782 284C224.733 284 239.107 198.881 239.107 165.745C239.113 10.5751 39.4802 -55.7067 39.4802 55.0191Z" fill="#448BE2" fill-opacity="0.1"/>
<path d="M75.3553 183.133L64.7187 271.311H61.231L71.8666 183.133H75.3553Z" fill="#D2DCFF"/>
<path d="M28.3532 183.133L27.156 193.05L17.7175 271.311H14.2288L23.7149 192.662L24.8644 183.133H28.3532Z" fill="#D2DCFF"/>
<path d="M75.3553 271.311H71.8666L70.3953 259.116L68.6519 244.656L62.9151 197.094L61.231 183.133H64.7197L66.4516 197.493L70.3953 230.194L72.1396 244.654L75.3553 271.311Z" fill="#D2DCFF"/>
<path d="M122.358 271.311H118.869L110.614 202.869H110.613L108.233 183.133H111.722L114.149 203.25L122.358 271.311Z" fill="#D2DCFF"/>
<path d="M28.5235 124.188H25.0347V177.527H28.5235V124.188Z" fill="#D2DCFF"/>
<path d="M75.9243 124.188H72.4365V177.527H75.9243V124.188Z" fill="#D2DCFF"/>
<path d="M113.186 177.527H65.2576C66.8057 177.527 68.0611 178.783 68.0611 180.331C68.0611 181.879 66.8057 183.134 65.2576 183.134H113.186C114.734 183.134 115.989 181.879 115.989 180.331C115.988 178.782 114.734 177.527 113.186 177.527Z" fill="#D2DCFF"/>
<path d="M68.0599 180.331C68.0599 178.783 66.8046 177.527 65.2564 177.527H28.5971H23.8748C22.3266 177.527 21.0713 178.783 21.0713 180.331C21.0713 181.879 22.3266 183.134 23.8748 183.134H28.5971H65.2575C66.8056 183.134 68.0599 181.879 68.0599 180.331Z" fill="#87BDFF"/>
<path d="M78.7745 84.0469H22.1843C20.0267 84.0469 18.2771 85.7965 18.2771 87.9541V120.282C18.2771 122.439 20.0267 124.189 22.1843 124.189H78.7745C80.9321 124.189 82.6817 122.439 82.6817 120.282V87.9541C82.6817 85.7954 80.9321 84.0469 78.7745 84.0469Z" fill="#D2DCFF"/>
<path d="M28.3533 183.133L27.1571 193.05C25.8965 192.908 24.7451 192.778 23.7161 192.663L24.8655 183.133H28.3533Z" fill="#87BDFF"/>
<path d="M64.7197 183.133L66.4516 197.493C65.2669 197.36 64.0874 197.226 62.9151 197.094L61.231 183.133H64.7197Z" fill="#87BDFF"/>
<path d="M114.149 203.25C113.023 203.13 111.842 203.003 110.614 202.869H110.613L108.233 183.133H111.722L114.149 203.25Z" fill="#87BDFF"/>
<path d="M25.0347 124.188H28.5235V131.554L25.0347 131.168V124.188Z" fill="#AEC3FF"/>
<path d="M75.9243 124.188V136.801L72.4365 136.416V124.188H75.9243Z" fill="#AEC3FF"/>
<path d="M94.8564 34.9877C81.2647 37.2534 64.3295 32.1946 62.2061 28.9727C57.2855 36.4715 54.7852 36.2368 54.7852 36.2368V41.8604L53.6742 40.7494C53.3315 39.9748 52.7874 39.2054 51.9734 39.2054C47.4982 39.2054 47.1856 51.6529 54.7177 52.3725C54.8662 52.8605 55.0199 53.3163 55.1766 53.7296V73.6531H72.1658V65.8168C73.308 66.1304 74.4023 66.31 75.4074 66.31C82.1057 66.31 93.5201 56.4604 94.8139 40.7494C94.8917 37.785 94.8564 34.9877 94.8564 34.9877Z" fill="#FCBEB7"/>
<path d="M74.2351 13.6641C62.5185 13.6641 60.175 19.9127 60.175 19.9127C55.1754 19.9127 47.5209 29.0521 52.13 39.206L52.1539 39.2299L54.7861 41.862V36.2384C54.7861 36.2384 57.2854 36.4731 62.2071 28.9743C64.3304 32.1952 81.2667 37.2539 94.8574 34.9893C94.8574 34.9893 94.8927 37.7866 94.8148 40.751C94.8148 40.7541 94.8148 40.7572 94.8148 40.7604C99.8902 26.0742 89.701 13.6641 74.2351 13.6641Z" fill="#311643"/>
<path d="M69.1972 45.0399C68.679 45.0399 68.2595 44.6204 68.2595 44.1023V42.3517C68.2595 41.8335 68.679 41.4141 69.1972 41.4141C69.7153 41.4141 70.1347 41.8335 70.1347 42.3517V44.1023C70.1347 44.6204 69.7142 45.0399 69.1972 45.0399Z" fill="#311643"/>
<path d="M86.5768 45.0399C86.0587 45.0399 85.6392 44.6204 85.6392 44.1023V42.3517C85.6392 41.8335 86.0587 41.4141 86.5768 41.4141C87.0949 41.4141 87.5144 41.8335 87.5144 42.3517V44.1023C87.5144 44.6204 87.0949 45.0399 86.5768 45.0399Z" fill="#311643"/>
<path d="M76.0887 55.9814C74.4159 55.9814 73.2769 55.3521 72.5864 54.779C71.7163 54.0563 71.3549 53.2682 71.3394 53.235C71.2418 53.019 71.3383 52.7646 71.5543 52.667C71.7702 52.5694 72.0236 52.666 72.1222 52.8809C72.171 52.9868 73.3589 55.4788 76.8114 55.079C77.0471 55.0521 77.2599 55.2213 77.288 55.457C77.316 55.6927 77.1467 55.9056 76.911 55.9336C76.6234 55.9668 76.3493 55.9814 76.0887 55.9814Z" fill="#311643"/>
<path d="M86.5767 34.082C83.1927 34.082 80.3986 36.655 80.0466 39.9465C78.2067 39.0806 76.5827 39.5499 75.7261 39.9434C75.3731 36.6529 72.58 34.082 69.1971 34.082C65.5754 34.082 62.6296 37.0288 62.6296 40.6495C62.6296 44.2701 65.5764 47.2169 69.1971 47.2169C72.7368 47.2169 75.6306 44.401 75.7583 40.8914C76.3024 40.583 78.0499 39.7846 80.0144 40.8966C80.1452 44.4031 83.0381 47.2169 86.5756 47.2169C90.1973 47.2169 93.1431 44.2701 93.1431 40.6495C93.1431 37.0288 90.1984 34.082 86.5767 34.082ZM69.1971 46.3582C66.0489 46.3582 63.4884 43.7977 63.4884 40.6495C63.4884 37.5013 66.0489 34.9407 69.1971 34.9407C72.3453 34.9407 74.9058 37.5013 74.9058 40.6495C74.9058 43.7977 72.3443 46.3582 69.1971 46.3582ZM86.5767 46.3582C83.4284 46.3582 80.8679 43.7977 80.8679 40.6495C80.8679 37.5013 83.4284 34.9407 86.5767 34.9407C89.7238 34.9407 92.2854 37.5013 92.2854 40.6495C92.2854 43.7977 89.7238 46.3582 86.5767 46.3582Z" fill="white"/>
<path d="M72.1645 73.6518V65.8155C68.3227 64.7595 63.9492 62.1731 60.6619 59.707L72.1645 73.6518Z" fill="#F9AFAB"/>
<path d="M120.436 207.61L116.888 207.124L113.529 179.273H117.017L120.436 207.61Z" fill="#EBEDF4"/>
<path d="M111.014 101.18L114.095 107.086H97.6743L111.014 101.18Z" fill="#FCBEB7"/>
<path d="M79.5627 255.914V268.629C79.5627 270.112 80.7651 271.315 82.2479 271.315H118.313C118.656 271.315 118.934 271.036 118.934 270.694V268.35C118.934 267.219 118.275 266.193 117.247 265.721L96.393 255.914H79.5627Z" fill="#444444"/>
<path d="M79.5627 248.68L79.5721 255.914H96.392L97.556 248.68H79.5627Z" fill="#FCBEB7"/>
<path d="M72.1355 66.2628L94.9716 76.5776C98.1115 77.9959 100.667 80.4537 102.206 83.5365L111.014 101.18L97.6744 107.086L98.7792 146.086H32.3052L35.2074 109.662L23.1855 109.74V89.8111C23.1855 83.6382 26.8944 78.0707 32.5907 75.6918L55.1755 66.2617C55.1765 66.2628 65.0427 72.7368 72.1355 66.2628Z" fill="#2A3256"/>
<path d="M76.8921 68.3294C73.4562 71.1069 69.2094 72.6146 64.7301 72.6146C59.9859 72.6146 55.3487 70.7684 51.8142 67.668L51.0874 67.9712C54.7797 71.3021 59.7191 73.3019 64.729 73.3019C69.4877 73.3019 73.9951 71.6572 77.5991 68.6367L76.8921 68.3294Z" fill="white"/>
<path d="M114.956 255.914V268.629C114.956 270.112 116.159 271.315 117.641 271.315H153.707C154.051 271.315 154.328 271.036 154.328 270.694V268.35C154.328 267.219 153.668 266.193 152.64 265.721L131.787 255.914H114.956Z" fill="#444444"/>
<path d="M114.956 248.68L114.965 255.914H131.786L132.949 248.68H114.956Z" fill="#FCBEB7"/>
<path d="M67.6966 146.086L67.6956 146.765C67.6821 163.847 81.5262 177.701 98.6088 177.701H112.969L114.956 248.677H132.95L146.216 164.051C147.696 154.615 140.4 146.086 130.848 146.086H67.6966Z" fill="#373737"/>
<path d="M146.406 161.681C144.857 163.948 142.25 165.436 139.296 165.436C134.539 165.436 130.684 161.58 130.684 156.824C130.684 152.256 134.239 148.519 138.734 148.23C143.374 150.965 146.431 156.031 146.406 161.681Z" fill="#444444"/>
<path d="M111.012 161.348L112.969 177.702H101.187L111.012 161.348Z" fill="#87BDFF"/>
<path d="M32.303 146.086V146.765C32.2895 163.847 46.1336 177.701 63.2162 177.701H77.5764L79.5637 248.677H97.557L110.824 164.051C112.303 154.615 105.007 146.086 95.4554 146.086H32.303Z" fill="#373737"/>
<path d="M23.1865 109.742L23.8261 131.83C23.9985 137.799 28.888 142.55 34.8605 142.55H73.3109L75.8922 133.557L41.9762 127.966L41.7363 109.621L23.1865 109.742Z" fill="#FCBEB7"/>
<path d="M41.7363 109.621L46.9436 128.785L41.9762 127.965L41.7363 109.621Z" fill="#4A62D3"/>
<path d="M71.1543 132.773L65.0925 142.547H73.3109L75.8922 133.554L71.1543 132.773Z" fill="#F9AFAB"/>
<path d="M137.226 107.086H87.0895C84.9588 107.086 83.0857 108.497 82.498 110.545L73.3108 142.547H52.9802C52.0032 142.547 51.2109 143.339 51.2109 144.316C51.2109 145.293 52.0032 146.086 52.9802 146.086H72.2953H78.437H132.372L141.818 113.181C142.694 110.128 140.403 107.086 137.226 107.086Z" fill="#448BE2"/>
<path d="M111.012 161.349C109.495 163.802 106.78 165.435 103.684 165.435C98.9276 165.435 95.0723 161.58 95.0723 156.823C95.0723 152.188 98.7334 148.408 103.323 148.219C107.883 150.9 110.918 155.828 111.012 161.349Z" fill="#444444"/>
<path d="M111.575 127.995C111.706 126.501 110.983 125.216 109.959 125.126C108.935 125.036 107.999 126.175 107.868 127.669C107.736 129.164 108.46 130.448 109.483 130.538C110.507 130.628 111.443 129.49 111.575 127.995Z" fill="#87BDFF"/>
<path d="M101.894 82.948C101.09 83.489 100.123 83.8046 99.0812 83.8046C96.2964 83.8046 94.0391 81.5463 94.0391 78.7615C94.0391 77.9152 94.2467 77.1178 94.6153 76.418L94.9715 76.5789C97.9089 77.9059 100.333 80.1425 101.894 82.948Z" fill="#4A62D3"/>
<path d="M235.551 107.954V106.441C235.551 105.974 235.171 105.594 234.704 105.594H199.595C197.824 105.594 196.388 107.03 196.388 108.801V111.38C196.388 113.151 197.824 114.587 199.595 114.587H234.704C235.171 114.587 235.551 114.209 235.551 113.74V112.228C235.551 111.76 235.171 111.38 234.704 111.38H200.884C200.172 111.38 199.594 110.803 199.594 110.09C199.594 109.378 200.172 108.8 200.884 108.8H234.704C235.171 108.801 235.551 108.422 235.551 107.954Z" fill="#2A3256"/>
<path d="M234.034 108.798V111.378H200.884C200.172 111.378 199.594 110.8 199.594 110.087C199.594 109.375 200.172 108.797 200.884 108.797H234.034V108.798Z" fill="#FDFDFD"/>
<path d="M233.043 98.9575V97.4449C233.043 96.9775 232.663 96.5977 232.195 96.5977H202.103C200.331 96.5977 198.895 98.0337 198.895 99.8047V102.384C198.895 104.155 200.331 105.591 202.103 105.591H232.195C232.663 105.591 233.043 105.212 233.043 104.744V103.231C233.043 102.763 232.663 102.383 232.195 102.383H203.393C202.68 102.383 202.104 101.805 202.104 101.093C202.104 100.38 202.682 99.8025 203.393 99.8025H232.195C232.663 99.8047 233.043 99.4248 233.043 98.9575Z" fill="#448BE2"/>
<path d="M231.926 99.8058V102.386H203.392C202.679 102.386 202.103 101.808 202.103 101.095C202.103 100.383 202.68 99.8047 203.392 99.8047L231.926 99.8058Z" fill="#FDFDFD"/>
<path d="M207.536 120.523L188.932 270.935H185.238L203.842 120.523H207.536Z" fill="#D2DCFF"/>
<path d="M256.418 270.935H252.724L236.809 142.256L234.121 120.523H237.815L240.464 141.948L256.418 270.935Z" fill="#D2DCFF"/>
<path d="M22.2976 120.523L17.3208 160.766L3.69402 270.935H0L13.5874 161.081L18.6036 120.523H22.2976Z" fill="#D2DCFF"/>
<path d="M71.1802 270.935H67.4862L53.4829 157.716L48.8826 120.523H52.5766L57.1385 157.408L71.1802 270.935Z" fill="#D2DCFF"/>
<path d="M18.6036 120.523H22.2976L17.3208 160.766L13.5874 161.081L18.6036 120.523Z" fill="#87BDFF"/>
<path d="M52.5766 120.523L57.1385 157.408L53.4829 157.716L48.8826 120.523H52.5766Z" fill="#87BDFF"/>
<path d="M240.464 141.948L236.809 142.256L234.121 120.523H237.815L240.464 141.948Z" fill="#87BDFF"/>
<path d="M248.101 120.522H59.2246V114.586H248.101C249.465 114.586 250.57 115.691 250.57 117.055V118.052C250.571 119.416 249.465 120.522 248.101 120.522Z" fill="#D2DCFF"/>
<path d="M59.2246 120.522H9.24974C7.88597 120.522 6.78052 119.416 6.78052 118.052V117.055C6.78052 115.691 7.88597 114.586 9.24974 114.586H59.2246V120.522Z" fill="#87BDFF"/>
<path d="M192.633 99.3807H88.9814L100.537 37.0859H204.189L192.633 99.3807Z" fill="#D2DCFF"/>
<path d="M140.299 71.8672H151.941L167.267 114.588H146.931L140.299 71.8672Z" fill="#448BE2"/>
<path d="M139.879 111.844H105.281C104.651 111.844 104.139 112.355 104.139 112.984V113.445C104.139 114.075 104.651 114.587 105.281 114.587H139.879C140.509 114.587 141.02 114.075 141.02 113.445V112.984C141.02 112.355 140.509 111.844 139.879 111.844Z" fill="#87BDFF"/>
<path d="M140.299 71.8672V99.3813H144.57L140.299 71.8672Z" fill="#AEC3FF"/>
</svg>
