<?xml version="1.0" encoding="UTF-8"?>
<svg version="1.1" xmlns="http://www.w3.org/2000/svg" width="512" height="512">
<path d="M0 0 C1.01790619 0.00215515 2.03581238 0.0043103 3.08456421 0.00653076 C17.69363523 0.05620146 32.02575853 0.30709809 46.375 3.3125 C47.34985352 3.51117676 48.32470703 3.70985352 49.32910156 3.91455078 C86.24061921 11.63577862 120.90178362 25.97314294 151.375 48.3125 C152.2424585 48.94454346 152.2424585 48.94454346 153.12744141 49.58935547 C160.37723416 54.90780842 167.10620794 60.63229802 173.65625 66.78125 C175.95412963 68.92065518 178.29158807 70.9726899 180.6875 73 C183.94952617 75.83245894 186.76563412 78.88522849 189.55078125 82.18359375 C190.78419972 83.62302216 192.05413567 85.03182121 193.35546875 86.41015625 C205.65985595 99.47656379 215.47661398 114.78779807 224.375 130.3125 C224.80409668 131.06080078 225.23319336 131.80910156 225.67529297 132.58007812 C238.71070917 155.62033667 247.38567422 180.84839856 252.6875 206.75 C252.83485596 207.46889404 252.98221191 208.18778809 253.1340332 208.9284668 C256.10789088 224.57475609 256.74800362 240.04818046 256.6875 255.9375 C256.68534485 256.95540619 256.6831897 257.97331238 256.68096924 259.02206421 C256.63129854 273.63113523 256.38040191 287.96325853 253.375 302.3125 C253.07698486 303.77478027 253.07698486 303.77478027 252.77294922 305.26660156 C245.05172138 342.17811921 230.71435706 376.83928362 208.375 407.3125 C207.9536377 407.89080566 207.53227539 408.46911133 207.09814453 409.06494141 C201.77969158 416.31473416 196.05520198 423.04370794 189.90625 429.59375 C187.76684482 431.89162963 185.7148101 434.22908807 183.6875 436.625 C180.85504106 439.88702617 177.80227151 442.70313412 174.50390625 445.48828125 C173.06447784 446.72169972 171.65567879 447.99163567 170.27734375 449.29296875 C157.21093621 461.59735595 141.89970193 471.41411398 126.375 480.3125 C125.62669922 480.74159668 124.87839844 481.17069336 124.10742188 481.61279297 C101.06716333 494.64820917 75.83910144 503.32317422 49.9375 508.625 C49.21860596 508.77235596 48.49971191 508.91971191 47.7590332 509.0715332 C32.11274391 512.04539088 16.63931954 512.68550362 0.75 512.625 C-0.77685928 512.62176727 -0.77685928 512.62176727 -2.33456421 512.61846924 C-16.94363523 512.56879854 -31.27575853 512.31790191 -45.625 509.3125 C-47.08728027 509.01448486 -47.08728027 509.01448486 -48.57910156 508.71044922 C-85.49061921 500.98922138 -120.15178362 486.65185706 -150.625 464.3125 C-151.20330566 463.8911377 -151.78161133 463.46977539 -152.37744141 463.03564453 C-159.62723416 457.71719158 -166.35620794 451.99270198 -172.90625 445.84375 C-175.20412963 443.70434482 -177.54158807 441.6523101 -179.9375 439.625 C-183.19952617 436.79254106 -186.01563412 433.73977151 -188.80078125 430.44140625 C-190.03419972 429.00197784 -191.30413567 427.59317879 -192.60546875 426.21484375 C-204.90985595 413.14843621 -214.72661398 397.83720193 -223.625 382.3125 C-224.26864502 381.19004883 -224.26864502 381.19004883 -224.92529297 380.04492188 C-237.96070917 357.00466333 -246.63567422 331.77660144 -251.9375 305.875 C-252.08485596 305.15610596 -252.23221191 304.43721191 -252.3840332 303.6965332 C-255.35789088 288.05024391 -255.99800362 272.57681954 -255.9375 256.6875 C-255.93534485 255.66959381 -255.9331897 254.65168762 -255.93096924 253.60293579 C-255.88129854 238.99386477 -255.63040191 224.66174147 -252.625 210.3125 C-252.42632324 209.33764648 -252.22764648 208.36279297 -252.02294922 207.35839844 C-244.30172138 170.44688079 -229.96435706 135.78571638 -207.625 105.3125 C-206.99295654 104.4450415 -206.99295654 104.4450415 -206.34814453 103.56005859 C-201.02969158 96.31026584 -195.30520198 89.58129206 -189.15625 83.03125 C-187.01684482 80.73337037 -184.9648101 78.39591193 -182.9375 76 C-180.10504106 72.73797383 -177.05227151 69.92186588 -173.75390625 67.13671875 C-172.31447784 65.90330028 -170.90567879 64.63336433 -169.52734375 63.33203125 C-156.46093621 51.02764405 -141.14970193 41.21088602 -125.625 32.3125 C-124.87669922 31.88340332 -124.12839844 31.45430664 -123.35742188 31.01220703 C-100.31716333 17.97679083 -75.08910144 9.30182578 -49.1875 4 C-48.46860596 3.85264404 -47.74971191 3.70528809 -47.0090332 3.5534668 C-31.36274391 0.57960912 -15.88931954 -0.06050362 0 0 Z " fill="#209CEE" transform="translate(255.625,-0.3125)"/>
<path d="M0 0 C0.94093506 0.54817383 0.94093506 0.54817383 1.90087891 1.10742188 C2.59568359 1.50574219 3.29048828 1.9040625 4.00634766 2.31445312 C4.70630859 2.73082031 5.40626953 3.1471875 6.12744141 3.57617188 C6.85060547 3.99253906 7.57376953 4.40890625 8.31884766 4.83789062 C13.54251535 7.86624581 13.54251535 7.86624581 14.75244141 9.07617188 C14.90958795 10.70873945 15.00329554 12.34752526 15.06884766 13.98632812 C15.11074219 14.97568359 15.15263672 15.96503906 15.19580078 16.984375 C15.23511719 18.02529297 15.27443359 19.06621094 15.31494141 20.13867188 C15.358125 21.18345703 15.40130859 22.22824219 15.44580078 23.3046875 C15.55225365 25.89504072 15.654269 28.48549373 15.75244141 31.07617188 C16.61224609 30.1815625 17.47205078 29.28695312 18.35791016 28.36523438 C46.68965906 -0.77114105 46.68965906 -0.77114105 64.56494141 -2.23632812 C71.98250597 -2.07449035 76.64882655 3.54917904 81.56494141 8.55664062 C95.15197609 24.20599308 90.71131565 43.84538167 89.42797852 63.17749023 C89.26876443 65.65976024 89.12268737 68.14290642 88.98950195 70.62670898 C88.79359319 74.26477546 88.55667454 77.89819505 88.31103516 81.53320312 C88.23398598 83.1773394 88.23398598 83.1773394 88.15538025 84.85469055 C87.317857 95.89474084 81.59682676 103.58068235 74.18994141 111.45117188 C73.30177734 112.40765625 72.41361328 113.36414063 71.49853516 114.34960938 C66.26090596 119.54998658 62.4186718 122.83029727 55.00244141 123.88867188 C53.86778442 124.0651123 53.86778442 124.0651123 52.71020508 124.24511719 C39.357995 126.06196061 25.06545949 126.14136066 11.75244141 124.07617188 C11.77575783 124.96153877 11.77575783 124.96153877 11.79954529 125.86479187 C11.95450892 132.01266795 12.06002473 138.15998895 12.13696289 144.30932617 C12.17214812 146.60350072 12.21990487 148.89751851 12.28051758 151.19116211 C12.36551802 154.49046479 12.40514962 157.78769225 12.43603516 161.08789062 C12.47216415 162.1120256 12.50829315 163.13616058 12.54551697 164.19132996 C12.54931686 171.09530868 12.54931686 171.09530868 10.29031372 173.87588501 C7.73398293 175.83884059 5.90827422 177.06045943 2.62986755 177.10502625 C-4.73293385 176.04666155 -11.76092078 171.5271001 -18.24755859 168.07617188 C-18.34718746 162.35263298 -18.10144532 156.78611714 -17.41162109 151.09960938 C-15.9177006 137.82052292 -14.96101948 124.49421412 -13.96044922 111.17089844 C-13.73655664 108.19425756 -13.50758319 105.2180776 -13.27392578 102.2421875 C-11.96183438 85.51402787 -10.77034918 68.86965379 -11.24755859 52.07617188 C-11.28155762 50.80515625 -11.31555664 49.53414062 -11.35058594 48.22460938 C-11.45645836 45.06898589 -11.5922951 41.91719931 -11.74755859 38.76367188 C-11.79525391 37.71373047 -11.84294922 36.66378906 -11.89208984 35.58203125 C-12.00634482 33.07984718 -12.12474 30.57794743 -12.24755859 28.07617188 C-13.42833984 28.36492187 -14.60912109 28.65367187 -15.82568359 28.95117188 C-17.38291811 29.32640911 -18.94021297 29.70139602 -20.49755859 30.07617188 C-21.27486328 30.26695312 -22.05216797 30.45773438 -22.85302734 30.65429688 C-23.60712891 30.83476562 -24.36123047 31.01523438 -25.13818359 31.20117188 C-26.17507324 31.45253906 -26.17507324 31.45253906 -27.23291016 31.70898438 C-29.24755859 32.07617188 -29.24755859 32.07617188 -33.24755859 32.07617188 C-39.36321677 20.11204447 -39.36321677 20.11204447 -39.24755859 13.07617188 C-35.11503457 10.89824582 -30.97098364 8.74477903 -26.81469727 6.61254883 C-25.4040909 5.88468694 -23.9967896 5.15038087 -22.59301758 4.40942383 C-20.56836063 3.34219062 -18.53274134 2.29910262 -16.49365234 1.25976562 C-15.87356796 0.92649765 -15.25348358 0.59322968 -14.61460876 0.24986267 C-9.35467938 -2.38308121 -5.38828247 -2.21477959 0 0 Z " fill="#FCFEFE" transform="translate(341.24755859375,168.923828125)"/>
<path d="M0 0 C2.18265521 0.02405881 4.3641166 0.0204672 6.546875 0.01391602 C21.36223101 0.07233338 21.36223101 0.07233338 26.875 4.76196289 C27.8099741 5.71400815 28.73438475 6.67653232 29.6484375 7.64868164 C30.56882812 8.59356445 31.48921875 9.53844727 32.4375 10.51196289 C33.29085937 11.44395508 34.14421875 12.37594727 35.0234375 13.33618164 C35.71928955 14.04371582 36.4151416 14.75125 37.13208008 15.48022461 C39.5987582 19.20491813 39.75915722 22.5181235 39.87109375 26.85571289 C39.9088517 28.08181526 39.9088517 28.08181526 39.94737244 29.33268738 C39.98941957 31.05797717 40.01982276 32.78358524 40.03930664 34.50927734 C40.08569988 37.13523204 40.22255081 39.74691246 40.36132812 42.36938477 C40.70881432 54.51273454 40.70881432 54.51273454 36.42773438 59.14453125 C33.0431787 61.27587172 29.73062501 62.84377792 26.0234375 64.33618164 C24.23831376 65.21773001 22.45434446 66.1016224 20.671875 66.98852539 C18.91997618 67.76374843 17.16194205 68.52523529 15.3984375 69.27368164 C14.44493408 69.68408691 13.49143066 70.09449219 12.5090332 70.51733398 C-17.99766567 83.33618164 -17.99766567 83.33618164 -25.9765625 83.33618164 C-25.4815625 91.75118164 -25.4815625 91.75118164 -24.9765625 100.33618164 C-21.99731669 99.62818001 -19.01816257 98.91979609 -16.0390625 98.21118164 C-15.10698975 97.98962402 -14.17491699 97.76806641 -13.21459961 97.53979492 C-7.97681098 96.29338201 -2.74095708 95.03946029 2.4921875 93.77368164 C33.25870758 86.33618164 33.25870758 86.33618164 38.0234375 86.33618164 C38.86944026 88.37263114 39.69972 90.41561651 40.5234375 92.46118164 C40.9875 93.59813477 41.4515625 94.73508789 41.9296875 95.90649414 C43.01543991 99.31110349 43.11017259 101.80172668 43.0234375 105.33618164 C32.85343766 110.08113405 22.48759222 114.1059706 11.97973633 118.03149414 C9.87561499 118.82105027 7.77437314 119.61832106 5.67602539 120.4230957 C2.61698775 121.59611193 -0.44990633 122.74589036 -3.51953125 123.89086914 C-4.44992722 124.2521994 -5.38032318 124.61352966 -6.33891296 124.98580933 C-12.91552557 127.39609247 -17.4093514 127.83124587 -24.17895508 125.61523438 C-24.73736084 125.33623291 -25.2957666 125.05723145 -25.87109375 124.76977539 C-26.51119385 124.45339111 -27.15129395 124.13700684 -27.81079102 123.81103516 C-28.46362061 123.4687085 -29.1164502 123.12638184 -29.7890625 122.77368164 C-30.82728149 122.23795532 -30.82728149 122.23795532 -31.88647461 121.69140625 C-38.01894935 118.44990453 -43.7098081 114.87678884 -48.9765625 110.33618164 C-49.71132812 109.7187207 -50.44609375 109.10125977 -51.203125 108.46508789 C-54.93998896 104.64634046 -56.30623702 101.33835457 -56.27502441 95.96240234 C-56.25516479 95.25817139 -56.23530518 94.55394043 -56.21484375 93.82836914 C-56.20328247 93.06049072 -56.19172119 92.2926123 -56.17980957 91.50146484 C-56.13037966 88.7789974 -56.05437433 86.0579823 -55.9765625 83.33618164 C-55.9507309 82.27191956 -55.92489929 81.20765747 -55.89828491 80.11114502 C-55.71649809 72.7951876 -55.45411269 65.48575269 -55.13427734 58.17456055 C-55.02856896 55.60188695 -54.93790449 53.02855392 -54.86181641 50.45483398 C-54.74866931 46.68374141 -54.586445 42.91747577 -54.4140625 39.14868164 C-54.38973145 38.00995605 -54.36540039 36.87123047 -54.34033203 35.69799805 C-53.86683616 27.0788334 -50.92281339 22.46563237 -44.9765625 16.33618164 C-44.12707031 15.41063477 -43.27757813 14.48508789 -42.40234375 13.53149414 C-41.35626953 12.50668945 -41.35626953 12.50668945 -40.2890625 11.46118164 C-39.58394531 10.76250977 -38.87882812 10.06383789 -38.15234375 9.34399414 C-37.43433594 8.68141602 -36.71632813 8.01883789 -35.9765625 7.33618164 C-34.89580444 6.33760132 -34.89580444 6.33760132 -33.79321289 5.31884766 C-24.90356306 -0.9386583 -10.53509292 -0.12421183 0 0 Z " fill="#FCFDFE" transform="translate(135.9765625,166.663818359375)"/>
<path d="M0 0 C1.85428095 0.98161975 3.64352186 2.03130312 5.43334961 3.12573242 C6.04436523 3.48602539 6.65538086 3.84631836 7.28491211 4.2175293 C9.96735326 5.80766635 12.5884797 7.45831915 15.18334961 9.18823242 C15.56719469 12.12420781 15.78719261 14.86850616 15.87084961 17.81323242 C15.90500977 18.6150293 15.93916992 19.41682617 15.97436523 20.24291992 C16.05691839 22.2241956 16.12180876 24.2061928 16.18334961 26.18823242 C16.88459961 25.34260742 17.58584961 24.49698242 18.30834961 23.62573242 C37.96479301 0.05539543 37.96479301 0.05539543 48.80834961 -2.06176758 C52.13590649 -2.1886415 54.07659756 -1.68416707 56.74584961 0.31323242 C62.61783499 6.14405903 69.82959403 16.28868667 70.33447266 24.70849609 C70.28846924 25.58223877 70.24246582 26.45598145 70.19506836 27.35620117 C70.14801758 28.33266602 70.1009668 29.30913086 70.05249023 30.31518555 C69.99254883 31.32516602 69.93260742 32.33514648 69.87084961 33.37573242 C69.82250977 34.36637695 69.77416992 35.35702148 69.72436523 36.37768555 C69.39840431 42.66996924 68.87095995 48.92554303 68.18334961 55.18823242 C58.30722138 59.77584524 58.30722138 59.77584524 54.18334961 60.18823242 C53.48209961 60.26299805 52.78084961 60.33776367 52.05834961 60.41479492 C47.87717431 60.67611838 45.72343842 60.51228571 42.05834961 58.31323242 C39.71846176 54.41341934 40.08391864 52.65957684 40.78491211 48.30151367 C41.28796431 44.37080188 41.2795089 40.52060346 41.24584961 36.56323242 C41.23944458 35.47788208 41.23944458 35.47788208 41.23291016 34.37060547 C41.22067608 32.64311211 41.20263852 30.91566141 41.18334961 29.18823242 C39.05537512 28.96409465 39.05537512 28.96409465 37.51928711 30.69995117 C31.85646981 36.98319666 27.15468454 43.71770651 23.18334961 51.18823242 C22.44834229 52.53654396 22.44834229 52.53654396 21.69848633 53.91209412 C17.49234503 62.20453617 16.30879898 68.91423971 16.37866211 78.14526367 C16.36495575 79.41423996 16.35124939 80.68321625 16.33712769 81.99064636 C16.30637218 85.31692215 16.30065828 88.6412033 16.30780029 91.96746826 C16.30872235 95.38041111 16.27572641 98.79302297 16.24584961 102.20581055 C16.19426104 108.86673975 16.17575455 115.52712153 16.18334961 122.18823242 C11.95269234 123.09836845 8.01967426 123.3540508 3.68334961 123.37573242 C2.39428711 123.38991211 1.10522461 123.4040918 -0.22290039 123.41870117 C-4.58504161 123.13895516 -7.36714644 122.46883231 -10.66040039 119.55932617 C-12.44227963 117.47906621 -14.14493939 115.35806047 -15.81665039 113.18823242 C-16.37739258 112.53983398 -16.93813477 111.89143555 -17.51586914 111.22338867 C-20.18415258 107.57463362 -20.91461564 105.20617023 -20.47680664 100.65698242 C-19.12175213 94.07765122 -16.80070541 88.01166242 -14.01879883 81.91894531 C-9.94350342 72.90627278 -9.0364232 65.73213085 -9.65649414 55.91235352 C-9.84539834 52.69925433 -9.95809586 49.48706722 -10.06665039 46.27026367 C-10.28353103 39.90800137 -10.5387849 33.54810045 -10.81665039 27.18823242 C-12.31905273 27.60395508 -12.31905273 27.60395508 -13.85180664 28.02807617 C-15.19419448 28.39418195 -16.53664582 28.76005493 -17.87915039 29.12573242 C-18.53592773 29.30813477 -19.19270508 29.49053711 -19.86938477 29.6784668 C-24.17542859 30.84512892 -28.38824693 31.64116047 -32.81665039 32.18823242 C-33.83093553 30.15362474 -34.82751828 28.11018637 -35.81665039 26.06323242 C-36.65196289 24.35780273 -36.65196289 24.35780273 -37.50415039 22.61791992 C-38.82170008 19.17503709 -39.08242321 16.83153481 -38.81665039 13.18823242 C-37.82407227 12.69194336 -36.83149414 12.1956543 -35.80883789 11.68432617 C-34.83321899 11.1959729 -34.83321899 11.1959729 -33.83789062 10.69775391 C-32.39586074 9.97747712 -30.95264242 9.25957517 -29.50830078 8.54394531 C-25.93548048 6.76987414 -22.38623248 4.97161895 -18.88305664 3.06323242 C-18.27026855 2.73653564 -17.65748047 2.40983887 -17.02612305 2.07324219 C-15.34452044 1.17405512 -13.67208705 0.25778171 -12.00024414 -0.65942383 C-7.57495101 -2.26121705 -4.30943123 -1.92566306 0 0 Z " fill="#FCFDFE" transform="translate(225.816650390625,168.811767578125)"/>
<path d="M0 0 C2.63286669 21.70645441 4.25520896 50.5850806 -5 71 C-15.0995585 76.14159342 -26.58817252 76.28703398 -37.6875 76.125 C-38.87794922 76.11597656 -40.06839844 76.10695313 -41.29492188 76.09765625 C-44.19683367 76.07434772 -47.09830317 76.04163123 -50 76 C-51.97855499 59.34752454 -49.96039499 48.86844953 -39.66796875 35.515625 C-38.44806137 34.00818796 -37.22568659 32.50274176 -36 31 C-35.15755345 29.89457392 -34.31949865 28.78576936 -33.48828125 27.671875 C-12.101875 0 -12.101875 0 0 0 Z " fill="#229DEE" transform="translate(403,194)"/>
<path d="M0 0 C1.65612305 0.01353516 1.65612305 0.01353516 3.34570312 0.02734375 C6.0432017 0.05069872 8.74023077 0.08344946 11.4375 0.125 C12.7357126 5.88581841 13.69456972 11.21239655 13.4375 17.125 C0.30186415 24.91732635 -12.86546354 31.71862594 -27.5625 36.125 C-28.17232687 28.73931906 -27.12581588 21.84249498 -25.6875 14.625 C-25.51379883 13.74038086 -25.34009766 12.85576172 -25.16113281 11.94433594 C-24.35075274 8.05121612 -23.80331951 5.48622927 -21.5625 2.125 C-14.8767923 -0.69332668 -7.09391578 -0.1111765 0 0 Z " fill="#229DEE" transform="translate(137.5625,191.875)"/>
</svg>
